<?xml version="1.0" standalone="no"?>
<!DOCTYPE svg PUBLIC "-//W3C//DTD SVG 20010904//EN"
 "http://www.w3.org/TR/2001/REC-SVG-20010904/DTD/svg10.dtd">
<svg version="1.0" xmlns="http://www.w3.org/2000/svg"
 width="700.000000pt" height="700.000000pt" viewBox="0 0 700.000000 700.000000"
 preserveAspectRatio="xMidYMid meet">
<metadata>
Created by potrace 1.14, written by Peter Selinger 2001-2017
</metadata>
<g transform="translate(0.000000,700.000000) scale(0.100000,-0.100000)"
fill="#000000" stroke="none">
<path d="M1310 4165 l0 -315 310 0 310 0 0 315 0 315 -310 0 -310 0 0 -315z"/>
<path d="M2570 4165 l0 -315 -315 0 -315 0 0 -315 0 -315 320 0 320 0 0 315 0
315 315 0 315 0 0 315 0 315 -320 0 -320 0 0 -315z"/>
<path d="M3850 3535 l0 -945 945 0 945 0 0 945 0 945 -945 0 -945 0 0 -945z
m1270 7 c0 -226 -3 -311 -12 -320 -9 -9 -94 -12 -320 -12 l-308 0 0 320 0 320
320 0 320 0 0 -308z"/>
<path d="M1310 2900 l0 -310 310 0 310 0 0 310 0 310 -310 0 -310 0 0 -310z"/>
<path d="M2570 2900 l0 -310 320 0 320 0 -2 308 -3 307 -317 3 -318 2 0 -310z"/>
</g>
</svg>
